<?xml version="1.0" encoding="UTF-8" standalone="no"?>
<!-- Created with Inkscape (http://www.inkscape.org/) -->

<svg
   xmlns:dc="http://purl.org/dc/elements/1.1/"
   xmlns:cc="http://creativecommons.org/ns#"
   xmlns:rdf="http://www.w3.org/1999/02/22-rdf-syntax-ns#"
   xmlns:svg="http://www.w3.org/2000/svg"
   xmlns="http://www.w3.org/2000/svg"
   xmlns:sodipodi="http://sodipodi.sourceforge.net/DTD/sodipodi-0.dtd"
   xmlns:inkscape="http://www.inkscape.org/namespaces/inkscape"
   width="43mm"
   height="43mm"
   viewBox="0 0 43 43"
   version="1.1"
   id="svg3611"
   inkscape:version="0.92.4 (5da689c313, 2019-01-14)"
   sodipodi:docname="Distanz.svg">
  <defs
     id="defs3605" />
  <sodipodi:namedview
     id="base"
     pagecolor="#ffffff"
     bordercolor="#666666"
     borderopacity="1.0"
     inkscape:pageopacity="0.0"
     inkscape:pageshadow="2"
     inkscape:zoom="1.979899"
     inkscape:cx="46.547078"
     inkscape:cy="200.04311"
     inkscape:document-units="mm"
     inkscape:current-layer="layer1"
     showgrid="false"
     width="27mm"
     inkscape:window-width="1920"
     inkscape:window-height="1139"
     inkscape:window-x="1024"
     inkscape:window-y="26"
     inkscape:window-maximized="1" />
  <metadata
     id="metadata3608">
    <rdf:RDF>
      <cc:Work
         rdf:about="">
        <dc:format>image/svg+xml</dc:format>
        <dc:type
           rdf:resource="http://purl.org/dc/dcmitype/StillImage" />
        <dc:title></dc:title>
      </cc:Work>
    </rdf:RDF>
  </metadata>
  <g
     inkscape:label="Ebene 1"
     inkscape:groupmode="layer"
     id="layer1"
     transform="translate(0,-254)">
    <g
       transform="matrix(17.54086,0,0,17.54086,-2503.1114,2598.9545)"
       style="display:inline"
       id="g3591">
      <path
         inkscape:connector-curvature="0"
         id="path1439-04"
         d="m 143.22524,-132.81193 c -0.22861,0 -0.41394,0.18532 -0.41394,0.41393 0,0.22861 0.18596,0.6801 0.41394,1.07496 0.22561,-0.39078 0.41393,-0.84635 0.41393,-1.07496 0,-0.22861 -0.18532,-0.41393 -0.41393,-0.41393 z m 0,0.23519 a 0.19008472,0.19008472 0 0 1 0.19007,0.19009 0.19008472,0.19008472 0 0 1 -0.19007,0.19008 0.19008472,0.19008472 0 0 1 -0.19009,-0.19008 0.19008472,0.19008472 0 0 1 0.19009,-0.19009 z"
         style="opacity:1;fill:#0084c8;fill-opacity:1;fill-rule:evenodd;stroke:#0e232e;stroke-width:0.07328626;stroke-linejoin:round;stroke-miterlimit:4;stroke-dasharray:none;stroke-dashoffset:0;stroke-opacity:1;paint-order:markers fill stroke" />
      <path
         inkscape:connector-curvature="0"
         id="path1439-04-4"
         d="m 144.83335,-133.58563 c -0.12641,0 -0.22888,0.10247 -0.22888,0.22888 0,0.1264 0.10282,0.37605 0.22888,0.59438 0.12475,-0.21608 0.22887,-0.46798 0.22887,-0.59438 0,-0.12641 -0.10247,-0.22888 -0.22887,-0.22888 z m 0,0.13004 a 0.10510381,0.10510381 0 0 1 0.10509,0.10511 0.10510381,0.10510381 0 0 1 -0.10509,0.1051 0.10510381,0.10510381 0 0 1 -0.10511,-0.1051 0.10510381,0.10510381 0 0 1 0.10511,-0.10511 z"
         style="display:inline;opacity:1;fill:#dc0000;fill-opacity:1;fill-rule:evenodd;stroke:#0e232e;stroke-width:0.0516335;stroke-linejoin:round;stroke-miterlimit:4;stroke-dasharray:none;stroke-dashoffset:0;stroke-opacity:1;paint-order:markers fill stroke" />
      <path
         sodipodi:nodetypes="cccccc"
         inkscape:connector-curvature="0"
         id="path3586"
         d="m 144.68742,-132.75824 -0.61519,0.21159 0.55468,0.16828 -0.66063,0.29291 0.84136,0.2119 -1.3805,0.48486"
         style="fill:none;stroke:#0e232e;stroke-width:0.07270331;stroke-linecap:round;stroke-linejoin:round;stroke-miterlimit:4;stroke-dasharray:none;stroke-dashoffset:0;stroke-opacity:1" />
    </g>
  </g>
</svg>
