<?xml version="1.0" standalone="no"?>
<!DOCTYPE svg PUBLIC "-//W3C//DTD SVG 20010904//EN"
 "http://www.w3.org/TR/2001/REC-SVG-20010904/DTD/svg10.dtd">
<svg version="1.0" xmlns="http://www.w3.org/2000/svg"
 width="500.000000pt" height="100.000000pt" viewBox="0 0 500.000000 100.000000"
 preserveAspectRatio="xMidYMid meet">

<g transform="translate(0.000000,100.000000) scale(0.100000,-0.100000)"
fill="#000000" stroke="none">
<path d="M2220 760 c-19 -19 -33 -20 -260 -20 l-240 0 0 -75 0 -74 73 -3 72
-3 0 -198 0 -197 93 0 92 0 0 200 0 200 70 0 70 0 0 30 c0 35 3 37 30 10 29
-29 94 -27 125 5 56 55 16 145 -65 145 -27 0 -47 -7 -60 -20z"/>
<path d="M214 751 c-86 -21 -144 -91 -144 -173 0 -24 11 -73 24 -109 30 -87
156 -294 169 -279 24 28 97 148 128 209 45 90 63 161 54 214 -8 42 -52 100
-94 121 -35 18 -99 26 -137 17z m114 -118 c24 -33 26 -63 5 -91 -65 -88 -203
-15 -152 79 25 47 115 54 147 12z"/>
<path d="M601 477 c-30 -144 -56 -268 -59 -274 -3 -10 17 -13 81 -13 73 0 86
3 91 18 2 9 12 55 22 100 10 47 20 78 24 70 4 -7 18 -52 31 -100 23 -87 24
-88 55 -88 28 0 38 10 103 101 39 56 71 95 71 87 0 -7 -9 -53 -19 -101 l-19
-88 86 3 85 3 52 247 c29 136 55 258 59 272 l6 26 -84 0 -85 0 -101 -145 c-56
-80 -102 -145 -104 -145 -2 0 -20 65 -41 145 l-38 145 -81 0 -81 0 -54 -263z"/>
<path d="M2643 569 c-18 -5 -35 -14 -38 -19 -9 -15 -25 -12 -25 5 0 12 -16 15
-80 15 l-80 0 0 -190 0 -190 85 0 85 0 0 108 c0 59 4 112 8 118 15 23 51 35
72 24 18 -10 20 -21 20 -130 l0 -120 90 0 90 0 0 137 c0 117 -3 143 -20 179
-32 64 -115 90 -207 63z"/>
<path d="M3040 571 c-83 -27 -123 -68 -140 -145 -20 -91 17 -179 93 -218 52
-27 185 -36 263 -19 l54 12 0 54 c0 54 0 54 -26 45 -14 -6 -61 -10 -104 -10
-63 0 -82 4 -101 20 l-24 19 143 1 142 0 0 57 c0 115 -74 184 -204 189 -39 2
-82 0 -96 -5z m126 -118 c17 -17 16 -18 -14 -21 -18 -2 -46 -2 -64 0 -30 3
-31 4 -14 21 10 9 30 17 46 17 16 0 36 -8 46 -17z"/>
<path d="M3610 566 c-19 -7 -43 -17 -52 -21 -13 -5 -18 -3 -18 9 0 13 -13 16
-80 16 l-80 0 0 -190 0 -190 85 0 85 0 0 103 c0 113 7 130 60 141 88 18 80 10
80 81 0 61 -1 65 -22 65 -13 -1 -39 -7 -58 -14z"/>
<path d="M3750 567 l-45 -12 -3 -54 c-3 -52 -2 -53 20 -47 84 25 189 15 202
-19 3 -10 -13 -12 -78 -8 -102 7 -150 -7 -177 -51 -22 -35 -25 -93 -7 -131 26
-58 152 -85 236 -50 24 10 38 12 40 5 2 -6 37 -10 83 -10 l79 0 0 138 c0 163
-11 190 -88 225 -57 25 -194 33 -262 14z m166 -242 c19 -15 19 -15 -5 -35 -28
-24 -59 -23 -74 2 -24 38 38 64 79 33z"/>
<path d="M4360 559 c-51 -23 -50 -23 -50 -4 0 12 -16 15 -85 15 l-85 0 0 -190
0 -190 90 0 90 0 0 109 0 109 34 16 c19 9 42 16 53 16 27 0 40 12 45 40 4 20
19 -4 71 -113 37 -76 67 -147 67 -158 0 -28 -43 -52 -80 -44 l-30 7 0 -65 c0
-64 0 -65 31 -71 94 -19 171 0 222 52 31 32 53 77 117 241 43 111 82 211 85
222 6 19 3 20 -80 17 l-87 -3 -34 -95 c-19 -52 -37 -102 -40 -110 -3 -9 -23
30 -45 90 -22 58 -43 108 -47 111 -4 4 -50 9 -103 12 -81 4 -103 2 -139 -14z"/>
<path d="M1245 432 c-25 -128 -26 -141 -12 -174 9 -20 28 -45 43 -54 34 -23
118 -23 161 0 39 20 43 20 43 1 0 -34 -30 -74 -65 -85 -35 -12 -117 -6 -161
10 -19 8 -22 3 -33 -43 -6 -28 -8 -54 -3 -59 29 -29 193 -31 275 -2 108 38
135 86 187 325 22 101 40 191 40 201 0 16 -10 18 -84 18 l-84 0 -10 -47 c-6
-27 -16 -76 -23 -111 -12 -66 -34 -92 -75 -92 -47 0 -47 28 1 228 5 22 4 22
-83 22 l-89 0 -28 -138z"/>
<path d="M2190 380 l0 -190 90 0 90 0 0 190 0 190 -90 0 -90 0 0 -190z"/>
</g>
</svg>
